<svg id="_Layer_" data-name="&lt;Layer&gt;" xmlns="http://www.w3.org/2000/svg" viewBox="0 0 83.7 83.7"><defs><style>.cls-1{fill:none;stroke:#e5e5e5;stroke-miterlimit:10;stroke-width:2px;}.cls-2{fill:#7d7d7d;}</style></defs><title>Vector Smart Object4</title><path class="cls-1" d="M59.7,97a40.9,40.9,0,1,1,40.8-40.8A40.8,40.8,0,0,1,59.7,97Z" transform="translate(-17.9 -14.3)"/><path class="cls-2" d="M51.1,40.1a1,1,0,0,0-1.5.2,1.1,1.1,0,0,0,.1,1.6L67.2,56.2,49.7,70.5a1,1,0,0,0-.1,1.5.9.9,0,0,0,.8.4.8.8,0,0,0,.7-.2L69.7,57a1.2,1.2,0,0,0,.4-.8,1.3,1.3,0,0,0-.4-.9Z" transform="translate(-17.9 -14.3)"/></svg>