<svg id="Layer_1" data-name="Layer 1" xmlns="http://www.w3.org/2000/svg" viewBox="0 0 24.8 24.8"><defs><style>.cls-1{fill:#212121;}</style></defs><title>Vector Smart Object3</title><path class="cls-1" d="M7.7,20.1a10.6,10.6,0,0,1,15-15,10.5,10.5,0,0,1,3,7.5,10.5,10.5,0,0,1-3,7.5h0a10.6,10.6,0,0,1-15,0Zm13.5-1.5a8.5,8.5,0,1,0-14.5-6,8.5,8.5,0,0,0,8.5,8.5,8.6,8.6,0,0,0,6-2.5Z" transform="translate(-4.6 -2.1)"/><path class="cls-1" d="M7.7,20.1a10.6,10.6,0,0,1,15-15,10.5,10.5,0,0,1,3,7.5,10.5,10.5,0,0,1-3,7.5h0a10.6,10.6,0,0,1-15,0Zm13.5-1.5a8.5,8.5,0,1,0-14.5-6,8.5,8.5,0,0,0,8.5,8.5,8.6,8.6,0,0,0,6-2.5Z" transform="translate(-4.6 -2.1)"/><path class="cls-1" d="M28.4,26.8a1.1,1.1,0,0,0,.7-1.8l-5.9-5.9a1.1,1.1,0,0,0-1.5,1.5l5.9,5.9A1.1,1.1,0,0,0,28.4,26.8Z" transform="translate(-4.6 -2.1)"/></svg>