<svg id="Layer_1" data-name="Layer 1" xmlns="http://www.w3.org/2000/svg" viewBox="0 0 398.2 132"><defs><style>.cls-1,.cls-2{fill:#53585a;}.cls-1{stroke:#fff;stroke-miterlimit:10;stroke-width:2px;}.cls-3{fill:#fff;}</style></defs><title>tripON_logo_gray</title><circle class="cls-1" cx="325" cy="70.3" r="36.1"/><circle class="cls-1" cx="333" cy="70.3" r="36.1"/><circle class="cls-1" cx="342" cy="70.3" r="36.1"/><circle class="cls-1" cx="352.1" cy="70.3" r="36.1"/><circle class="cls-1" cx="361.1" cy="70.3" r="36.1"/><polygon class="cls-2" points="47.5 15.6 20.1 15.6 20.1 37.7 0 37.7 0 56.4 20.1 56.4 20.1 103.8 47.5 103.8 47.5 56.4 69 56.4 69 37.7 47.5 37.7 47.5 15.6"/><path class="cls-2" d="M138.5,51.3c-3.6-2.4-8-3.5-13.1-3.5a27,27,0,0,0-15.2,4.8,35.6,35.6,0,0,0-9.7,10V50.2H73.3v66.1h27.2V86.6a30.4,30.4,0,0,1,1.8-10.1,15.1,15.1,0,0,1,4.5-6.5,10.8,10.8,0,0,1,6.6-2.3,7.8,7.8,0,0,1,7,3.6c1.6,2.4,2.3,5.8,2.3,10.2h27.1c.1-7.7-.8-14.1-2.8-19.1S142.2,53.7,138.5,51.3Z" transform="translate(0 -12.5)"/><path class="cls-2" d="M178.9,14.6a21.6,21.6,0,0,0-18.6,0,18.8,18.8,0,0,0-6.7,5.7,13.9,13.9,0,0,0-2.4,7.9,14,14,0,0,0,2.4,7.8,17.3,17.3,0,0,0,6.7,5.8,22.6,22.6,0,0,0,18.6,0,18,18,0,0,0,6.7-5.8,14,14,0,0,0,2.4-7.8,13.9,13.9,0,0,0-2.4-7.9A19.7,19.7,0,0,0,178.9,14.6Z" transform="translate(0 -12.5)"/><rect class="cls-2" x="156.2" y="37.7" width="27.4" height="66.13"/><path class="cls-2" d="M274.2,65.1A32.2,32.2,0,0,0,263,52.4a28.2,28.2,0,0,0-15.9-4.6,30.3,30.3,0,0,0-16.7,4.7,33.9,33.9,0,0,0-9.4,8.7v-11H194v94.3h27.1V106.7a31.9,31.9,0,0,0,7.8,7.3,29.3,29.3,0,0,0,16.2,4.7,31.3,31.3,0,0,0,16.5-4.7,36,36,0,0,0,12.2-12.9,36.6,36.6,0,0,0,4.5-17.9A39.8,39.8,0,0,0,274.2,65.1ZM251,92.3a15.3,15.3,0,0,1-5.9,6.4,16.6,16.6,0,0,1-8.4,2.3,14.9,14.9,0,0,1-8-2.3,14.6,14.6,0,0,1-5.6-6.4,17.9,17.9,0,0,1-2-7.7V81.9a17.7,17.7,0,0,1,8.6-14,16.2,16.2,0,0,1,8.3-2.3,13.9,13.9,0,0,1,7.7,2.3,15,15,0,0,1,5.5,6.2,20.3,20.3,0,0,1,1.9,8.9A19.9,19.9,0,0,1,251,92.3Z" transform="translate(0 -12.5)"/><path class="cls-3" d="M340.3,94.4a10.7,10.7,0,0,1-4.5-4.7,14.6,14.6,0,0,1-1.4-6.7,13.5,13.5,0,0,1,1.7-6.6,12,12,0,0,1,4.7-4.8,12.9,12.9,0,0,1,7.2-1.9,13.6,13.6,0,0,1,7.1,1.8,11,11,0,0,1,4.5,4.8A13.5,13.5,0,0,1,361,83a12.7,12.7,0,0,1-1.8,6.7,11.5,11.5,0,0,1-4.8,4.7,15.5,15.5,0,0,1-14.1,0Zm10.1-6a5.6,5.6,0,0,0,2-2.3,7.4,7.4,0,0,0,.2-6.3,4.7,4.7,0,0,0-1.8-2.3,4.8,4.8,0,0,0-2.9-.9,4.9,4.9,0,0,0-3,.9,5.4,5.4,0,0,0-1.9,2.3,8.4,8.4,0,0,0-.8,3.2,8.3,8.3,0,0,0,.6,3.2,5.8,5.8,0,0,0,1.8,2.3,5.5,5.5,0,0,0,2.9.8A4.8,4.8,0,0,0,350.4,88.4Z" transform="translate(0 -12.5)"/><path class="cls-3" d="M370.7,81.7V94.9h-7.1V71.1h7.1l8.9,13.2V71.1h7V94.9h-7.1Z" transform="translate(0 -12.5)"/></svg>