<svg id="Layer_1" data-name="Layer 1" xmlns="http://www.w3.org/2000/svg" viewBox="0 0 744.6 161.3"><defs><style>.cls-1{fill:#909090;}.cls-2{fill:#16090e;}</style></defs><title>아이콘</title><path class="cls-1" d="M220.7-232.3h-18v-11a9,9,0,0,1,9-9,9,9,0,0,1,9,9Z" transform="translate(-8.1 387.6)"/><circle class="cls-1" cx="203.6" cy="125.3" r="7"/><circle class="cls-1" cx="165.6" cy="125.3" r="7"/><path class="cls-1" d="M182.7-232.3h-18v-11a9,9,0,0,1,9-9,9,9,0,0,1,9,9Z" transform="translate(-8.1 387.6)"/><circle class="cls-1" cx="184.6" cy="115.8" r="10.5"/><path class="cls-1" d="M207.7-226.3h-30v-17a15,15,0,0,1,15-15,15,15,0,0,1,15,15Z" transform="translate(-8.1 387.6)"/><path class="cls-2" d="M229.7-337.6h-18v-11a9,9,0,0,1,9-9,9,9,0,0,1,9,9Z" transform="translate(-8.1 387.6)"/><circle class="cls-2" cx="212.6" cy="20" r="7"/><circle class="cls-2" cx="174.6" cy="20" r="7"/><path class="cls-2" d="M191.7-337.6h-18v-11a9,9,0,0,1,9-9,9,9,0,0,1,9,9Z" transform="translate(-8.1 387.6)"/><circle class="cls-2" cx="193.6" cy="10.5" r="10.5"/><path class="cls-2" d="M216.7-331.6h-30v-17a15,15,0,0,1,15-15,15,15,0,0,1,15,15Z" transform="translate(-8.1 387.6)"/><path class="cls-1" d="M38.7-234.1a3.1,3.1,0,0,1-3,3.1,3.1,3.1,0,0,1-3.1-3.1,3.1,3.1,0,0,1,3.1-3A3.1,3.1,0,0,1,38.7-234.1Z" transform="translate(-8.1 387.6)"/><path class="cls-1" d="M25.6-234.1a3.1,3.1,0,0,1-3.1,3.1,3.1,3.1,0,0,1-3-3.1,3.1,3.1,0,0,1,3-3A3.1,3.1,0,0,1,25.6-234.1Z" transform="translate(-8.1 387.6)"/><path class="cls-1" d="M51-256l-2.9-.8,4.2-15.4a7.1,7.1,0,0,1,6.9-5.4h5.2v3H59.2a4.3,4.3,0,0,0-4.1,3.2Z" transform="translate(-8.1 387.6)"/><path class="cls-1" d="M40.1-235.5H15.4v-3H40.1a3.6,3.6,0,0,0,3.5-2.7l2.3-8.1,2.9.8-2.3,8.1A6.7,6.7,0,0,1,40.1-235.5Z" transform="translate(-8.1 387.6)"/><polygon class="cls-1" points="40 143.1 6 143.1 0 121.1 46 121.1 40 143.1"/><path class="cls-2" d="M39.3-339.4a3.1,3.1,0,0,1-3,3.1,3.1,3.1,0,0,1-3.1-3.1,3,3,0,0,1,3.1-3A3,3,0,0,1,39.3-339.4Z" transform="translate(-8.1 387.6)"/><path class="cls-2" d="M26.2-339.4a3.1,3.1,0,0,1-3.1,3.1,3.1,3.1,0,0,1-3-3.1,3,3,0,0,1,3-3A3,3,0,0,1,26.2-339.4Z" transform="translate(-8.1 387.6)"/><path class="cls-2" d="M51.6-361.4l-2.9-.8,4.1-15.3a7.4,7.4,0,0,1,7-5.4H65v3H59.8a4.3,4.3,0,0,0-4.1,3.1Z" transform="translate(-8.1 387.6)"/><path class="cls-2" d="M40.7-340.9H16v-3H40.7a3.7,3.7,0,0,0,3.5-2.6l2.3-8.2,2.9.8-2.3,8.2A6.8,6.8,0,0,1,40.7-340.9Z" transform="translate(-8.1 387.6)"/><polygon class="cls-2" points="40.6 37.8 6.6 37.8 0.6 15.8 46.6 15.8 40.6 37.8"/><path class="cls-1" d="M378.7-249.3h-4a14,14,0,0,1-14-14,14,14,0,0,1,14-14h18v10h-18a4,4,0,0,0-4,4,4,4,0,0,0,4,4h4Z" transform="translate(-8.1 387.6)"/><path class="cls-1" d="M385.2-231.3H366.7v-10h18.5a3.5,3.5,0,0,0,3.5-3.5v-.8a3.6,3.6,0,0,0-3.6-3.7h-6.4v-10h6.4a13.6,13.6,0,0,1,13.6,13.7v.8A13.5,13.5,0,0,1,385.2-231.3Z" transform="translate(-8.1 387.6)"/><rect class="cls-1" x="367.6" y="105.3" width="10" height="10"/><rect class="cls-1" x="367.6" y="151.3" width="10" height="10"/><path class="cls-2" d="M375.7-354.6h-4a14,14,0,0,1-14-14,14,14,0,0,1,14-14h18v10h-18a4,4,0,0,0-4,4,4,4,0,0,0,4,4h4Z" transform="translate(-8.1 387.6)"/><path class="cls-2" d="M382.2-336.6H363.7v-10h18.5a3.5,3.5,0,0,0,3.5-3.5v-.9a3.6,3.6,0,0,0-3.6-3.6h-6.4v-10h6.4A13.6,13.6,0,0,1,395.7-351v.9A13.5,13.5,0,0,1,382.2-336.6Z" transform="translate(-8.1 387.6)"/><rect class="cls-2" x="364.6" width="10" height="10"/><rect class="cls-2" x="364.6" y="46" width="10" height="10"/><path class="cls-1" d="M541.6-282.3a28,28,0,0,0-28,28,28,28,0,0,0,28,28,28,28,0,0,0,28-28A28,28,0,0,0,541.6-282.3Zm0,49a4,4,0,0,1-4-4,4,4,0,0,1,4-4,4,4,0,0,1,4,4A4,4,0,0,1,541.6-233.3Zm3-18.4v4.4h-6v-10h3a6,6,0,0,0,6-6,6,6,0,0,0-6-6,6.2,6.2,0,0,0-4.1,1.6,6,6,0,0,0-1.9,4.4h-6a11.8,11.8,0,0,1,3.9-8.8,11.7,11.7,0,0,1,8.1-3.2,12,12,0,0,1,12,12A11.9,11.9,0,0,1,544.6-251.7Z" transform="translate(-8.1 387.6)"/><path class="cls-2" d="M541.6-387.6a28,28,0,0,0-28,28,28,28,0,0,0,28,28,28,28,0,0,0,28-28A28,28,0,0,0,541.6-387.6Zm0,49a4,4,0,0,1-4-4,4,4,0,0,1,4-4,4,4,0,0,1,4,4A4,4,0,0,1,541.6-338.6Zm3-18.4v4.4h-6v-10h3a6,6,0,0,0,6-6,6,6,0,0,0-6-6,5.7,5.7,0,0,0-4.1,1.6,6,6,0,0,0-1.9,4.4h-6a12,12,0,0,1,3.9-8.9,12,12,0,0,1,8.1-3.1,12,12,0,0,1,12,12A11.9,11.9,0,0,1,544.6-357Z" transform="translate(-8.1 387.6)"/><path class="cls-1" d="M719.7-282.3a28,28,0,0,0-28,28,28,28,0,0,0,28,28,28,28,0,0,0,28-28A28,28,0,0,0,719.7-282.3Zm4,45h-8v-18h8Zm-4-24a5,5,0,0,1-5-5,5.1,5.1,0,0,1,5-5,5,5,0,0,1,5,5A5,5,0,0,1,719.7-261.3Z" transform="translate(-8.1 387.6)"/><path class="cls-2" d="M724.7-387.6a28,28,0,0,0-28,28,28,28,0,0,0,28,28,28,28,0,0,0,28-28A28,28,0,0,0,724.7-387.6Zm4,45h-8v-18h8Zm-4-24a5.1,5.1,0,0,1-5-5,5,5,0,0,1,5-5,5,5,0,0,1,5,5A5,5,0,0,1,724.7-366.6Z" transform="translate(-8.1 387.6)"/></svg>